<?xml version="1.0" encoding="UTF-8"?>
<svg version="1.1" xmlns="http://www.w3.org/2000/svg" width="1920" height="1920">
<path d="M0 0 C633.6 0 1267.2 0 1920 0 C1920 633.6 1920 1267.2 1920 1920 C1286.4 1920 652.8 1920 0 1920 C0 1286.4 0 652.8 0 0 Z " fill="#D8E2E3" transform="translate(0,0)"/>
<path d="M0 0 C0.74888992 -0.00335861 1.49777985 -0.00671722 2.2693634 -0.01017761 C4.74331331 -0.01966483 7.21719514 -0.02163085 9.69116211 -0.02270508 C11.42972338 -0.0259236 13.16828438 -0.02928811 14.90684509 -0.03279114 C18.55932235 -0.03877999 22.21177599 -0.04063173 25.86425781 -0.04003906 C30.48634482 -0.03993846 35.10827464 -0.05348469 39.73032475 -0.07081127 C43.32975419 -0.08208636 46.92914779 -0.08395345 50.52859306 -0.08342934 C52.22858652 -0.08459036 53.92858151 -0.08890298 55.62855721 -0.0967617 C66.48195147 -0.14216446 77.09965136 0.45113558 87.88627625 1.67123413 C94.24489925 2.37852831 100.62312451 2.59781037 107.01242065 2.86444092 C126.85401294 3.72826104 146.4176463 6.13970891 166.08233643 8.83026123 C169.07254271 9.23562107 172.06457389 9.62613275 175.05696106 10.01501465 C178.38249223 10.44793399 181.70672039 10.89037717 185.03100586 11.33276367 C186.20977295 11.48729004 187.38854004 11.64181641 188.60302734 11.80102539 C193.77789698 12.51062934 198.47387436 13.37301459 203.40600586 15.14526367 C205.14921612 15.37219045 206.90123045 15.5401873 208.65600586 15.64526367 C214.04014073 16.07051663 219.13836815 16.97700936 224.40600586 18.14526367 C225.65510742 18.41209961 226.90420898 18.67893555 228.19116211 18.95385742 C240.08806512 21.51958665 251.88267692 24.46966452 263.67944336 27.45776367 C266.02397794 28.04893572 268.37016916 28.63192632 270.71850586 29.20776367 C300.04128046 36.41828202 328.73825064 45.17687554 356.97631836 55.87573242 C358.3694919 56.40322311 359.76271844 56.93057384 361.15600586 57.45776367 C362.11821045 57.82272949 362.11821045 57.82272949 363.09985352 58.19506836 C368.13609466 60.08747412 373.21824298 61.72361711 378.40600586 63.14526367 C378.40600586 63.80526367 378.40600586 64.46526367 378.40600586 65.14526367 C379.11756836 65.26385742 379.82913086 65.38245117 380.56225586 65.50463867 C383.54795666 66.1772416 386.10018745 67.17735348 388.90600586 68.39526367 C393.24779824 70.25145992 397.60762401 71.99303121 402.03100586 73.64526367 C406.88233167 75.48622024 411.43918509 77.6182437 416.03881836 80.00854492 C419.70460847 81.76885007 423.5138064 82.98888557 427.40600586 84.14526367 C427.40600586 84.80526367 427.40600586 85.46526367 427.40600586 86.14526367 C428.18975586 86.18651367 428.97350586 86.22776367 429.78100586 86.27026367 C434.13581631 87.32142482 437.15255125 89.30870105 440.91381836 91.68041992 C443.54683278 93.22803811 446.2056372 94.13969674 449.09350586 95.10620117 C452.349915 96.56938501 455.20784331 98.59013836 458.15600586 100.58276367 C463.50594315 104.19280206 468.46099703 106.51960266 474.78491211 108.09838867 C478.15962007 109.44626011 479.87894852 111.55657078 482.40600586 114.14526367 C484.50872065 115.46650975 486.6593306 116.71353648 488.84350586 117.89526367 C495.102295 121.35076667 501.11434941 125.08903284 507.10131836 128.99291992 C510.03970315 130.90669063 512.9983649 132.7813926 515.96850586 134.64526367 C526.43340037 141.30750756 536.46813772 148.58838441 546.49023438 155.8918457 C547.22943115 156.42922363 547.96862793 156.96660156 548.73022461 157.52026367 C549.39111084 158.00237305 550.05199707 158.48448242 550.73291016 158.98120117 C552.40808654 160.20618873 552.40808654 160.20618873 554.40600586 161.14526367 C554.40600586 161.80526367 554.40600586 162.46526367 554.40600586 163.14526367 C554.96545898 163.4056543 555.52491211 163.66604492 556.10131836 163.93432617 C563.67763553 167.91510299 570.30631811 173.78914389 576.78100586 179.33276367 C577.36350098 179.83146973 577.94599609 180.33017578 578.54614258 180.84399414 C581.12548746 183.0787332 583.5977139 185.33783526 586.00756836 187.75854492 C588.35769071 190.09718459 590.78730184 192.11576806 593.40600586 194.14526367 C596.98242417 196.96624946 600.22567026 199.87897306 603.40600586 203.14526367 C604.54550263 204.11112284 605.69186942 205.06891183 606.84350586 206.02026367 C609.90583242 208.6043093 612.44813483 211.40372269 615.00366211 214.48120117 C617.68382823 217.66156542 620.54855242 220.4856841 623.84350586 223.02026367 C626.57789088 225.28780247 628.72422066 227.72871893 630.97631836 230.46166992 C632.38815866 232.18602798 632.38815866 232.18602798 634.08569336 233.73510742 C635.40600586 235.14526367 635.40600586 235.14526367 635.40600586 237.14526367 C636.30319336 237.51651367 636.30319336 237.51651367 637.21850586 237.89526367 C639.72227505 239.32598892 640.88672974 240.71442188 642.40600586 243.14526367 C642.40600586 243.80526367 642.40600586 244.46526367 642.40600586 245.14526367 C644.05600586 245.14526367 645.70600586 245.14526367 647.40600586 245.14526367 C647.63288086 246.23838867 647.85975586 247.33151367 648.09350586 248.45776367 C649.00124247 252.24910126 649.00124247 252.24910126 651.80053711 253.57104492 C654.82942217 255.40109092 655.75317194 256.93059117 657.40600586 260.02026367 C659.70438172 264.10494201 662.01855384 266.95707353 665.40600586 270.14526367 C665.40600586 270.80526367 665.40600586 271.46526367 665.40600586 272.14526367 C666.00413086 272.33088867 666.60225586 272.51651367 667.21850586 272.70776367 C669.90401159 274.47252458 670.39120158 276.25965999 671.51928711 279.18432617 C672.79423344 282.003811 674.63560651 284.21832025 676.53100586 286.64916992 C682.37823174 294.43328938 687.88620263 302.66792437 692.37084961 311.31323242 C693.39328366 313.21710026 693.39328366 313.21710026 694.86694336 315.07885742 C696.52515889 317.30524325 697.79297222 319.56825469 699.09350586 322.02026367 C700.84308284 325.28322475 702.61320585 328.52737291 704.46850586 331.73120117 C704.82082275 332.3397998 705.17313965 332.94839844 705.53613281 333.57543945 C706.54615296 335.31376552 707.55997132 337.04988304 708.57397461 338.78588867 C710.42245886 342.17543336 711.92620129 345.58063028 713.40600586 349.14526367 C714.012516 350.52340713 714.62341056 351.89962704 715.23803711 353.27416992 C715.55869141 353.99209717 715.8793457 354.71002441 716.2097168 355.44970703 C716.54261719 356.19486572 716.87551758 356.94002441 717.21850586 357.70776367 C723.69852707 372.26989428 729.82029722 386.70220297 734.40991211 401.98901367 C735.28610913 404.76535561 736.27701693 407.43835201 737.34350586 410.14526367 C741.82603777 422.24632809 744.35748536 435.2241972 745.94897461 448.00073242 C746.39447969 451.06595968 747.06938034 453.96050846 747.84350586 456.95776367 C772.92556149 572.33521955 752.40600586 693.0729687 752.40600586 811.14526367 C277.20600586 811.14526367 -197.99399414 811.14526367 -687.59399414 811.14526367 C-687.59399414 486.14526367 -687.59399414 486.14526367 -686.59399414 483.14526367 C-686.42670016 481.71670946 -686.29975389 480.28320438 -686.19946289 478.84838867 C-686.13307617 477.9827832 -686.06668945 477.11717773 -685.99829102 476.2253418 C-685.92674805 475.29141602 -685.85520508 474.35749023 -685.78149414 473.39526367 C-685.08642984 465.0711736 -684.03116082 456.87395567 -682.59399414 448.64526367 C-682.3449231 447.20521973 -682.3449231 447.20521973 -682.09082031 445.73608398 C-681.24225009 441.04413697 -680.18665299 436.65099085 -678.59399414 432.14526367 C-678.21867968 429.81831403 -677.87482212 427.48549682 -677.59399414 425.14526367 C-676.93399414 425.14526367 -676.27399414 425.14526367 -675.59399414 425.14526367 C-675.52051758 424.13206055 -675.52051758 424.13206055 -675.44555664 423.09838867 C-675.37079102 422.20635742 -675.29602539 421.31432617 -675.21899414 420.39526367 C-675.11458008 419.07268555 -675.11458008 419.07268555 -675.00805664 417.72338867 C-674.5904945 415.12347349 -673.83084842 413.44363273 -672.59399414 411.14526367 C-672.10140778 409.27343551 -671.6133177 407.40004096 -671.16821289 405.51635742 C-670.08221132 401.0319836 -668.82037047 396.59292184 -667.59399414 392.14526367 C-666.93399414 392.14526367 -666.27399414 392.14526367 -665.59399414 392.14526367 C-665.42963867 390.61385742 -665.42963867 390.61385742 -665.26196289 389.05151367 C-664.59806976 385.16909769 -663.52791113 382.22004129 -661.90649414 378.64526367 C-661.36177903 377.42338446 -660.81887148 376.20069814 -660.27758789 374.97729492 C-659.99898926 374.35032715 -659.72039062 373.72335937 -659.43334961 373.07739258 C-658.03548213 369.85961385 -656.75465691 366.596623 -655.46899414 363.33276367 C-653.30875711 357.87284707 -651.030938 352.48779445 -648.59399414 347.14526367 C-647.93399414 347.14526367 -647.27399414 347.14526367 -646.59399414 347.14526367 C-646.50118164 345.96963867 -646.50118164 345.96963867 -646.40649414 344.77026367 C-645.29076064 339.79237574 -642.99093187 335.62072673 -640.59399414 331.14526367 C-639.93399414 331.14526367 -639.27399414 331.14526367 -638.59399414 331.14526367 C-638.34649414 330.48526367 -638.09899414 329.82526367 -637.84399414 329.14526367 C-634.27066893 320.56928316 -629.46984659 312.77446877 -624.64086914 304.86743164 C-623.73943768 303.38452643 -622.85276938 301.8926651 -621.96899414 300.39916992 C-620.89947071 298.61344777 -619.75672643 296.87174495 -618.59399414 295.14526367 C-617.93399414 295.14526367 -617.27399414 295.14526367 -616.59399414 295.14526367 C-616.36711914 294.48526367 -616.14024414 293.82526367 -615.90649414 293.14526367 C-614.20611264 289.25867739 -612.1977633 285.5084655 -609.59399414 282.14526367 C-608.93399414 282.14526367 -608.27399414 282.14526367 -607.59399414 282.14526367 C-607.38774414 281.49170898 -607.18149414 280.8381543 -606.96899414 280.16479492 C-605.05413643 275.95972386 -602.37590986 272.50371142 -599.59399414 268.83276367 C-599.04743164 268.09219727 -598.50086914 267.35163086 -597.93774414 266.58862305 C-597.41180664 265.88930664 -596.88586914 265.18999023 -596.34399414 264.46948242 C-595.86446289 263.83099365 -595.38493164 263.19250488 -594.89086914 262.53466797 C-594.24891602 261.84691284 -594.24891602 261.84691284 -593.59399414 261.14526367 C-592.93399414 261.14526367 -592.27399414 261.14526367 -591.59399414 261.14526367 C-591.26399414 259.82526367 -590.93399414 258.50526367 -590.59399414 257.14526367 C-589.93399414 257.14526367 -589.27399414 257.14526367 -588.59399414 257.14526367 C-588.34649414 256.44401367 -588.09899414 255.74276367 -587.84399414 255.02026367 C-585.94984382 250.66371794 -584.12707201 247.05781002 -579.96899414 244.58276367 C-577.05254828 242.81754644 -576.54661859 241.34954591 -575.59399414 238.14526367 C-574.93399414 238.14526367 -574.27399414 238.14526367 -573.59399414 238.14526367 C-573.26399414 237.15526367 -572.93399414 236.16526367 -572.59399414 235.14526367 C-570.59790039 233.42651367 -570.59790039 233.42651367 -568.15649414 231.64526367 C-565.26966434 229.53227107 -563.60415203 228.16050051 -561.59399414 225.14526367 C-560.93399414 225.14526367 -560.27399414 225.14526367 -559.59399414 225.14526367 C-559.28461914 224.52651367 -558.97524414 223.90776367 -558.65649414 223.27026367 C-557.96899414 221.89526367 -557.28149414 220.52026367 -556.59399414 219.14526367 C-555.93399414 219.14526367 -555.27399414 219.14526367 -554.59399414 219.14526367 C-554.26399414 218.15526367 -553.93399414 217.16526367 -553.59399414 216.14526367 C-551.81665039 214.32104492 -551.81665039 214.32104492 -549.65649414 212.45776367 C-548.59108398 211.52383789 -548.59108398 211.52383789 -547.50415039 210.57104492 C-545.59399414 209.14526367 -545.59399414 209.14526367 -543.59399414 209.14526367 C-543.26399414 208.15526367 -542.93399414 207.16526367 -542.59399414 206.14526367 C-541.93399414 206.14526367 -541.27399414 206.14526367 -540.59399414 206.14526367 C-540.3374707 205.5600293 -540.08094727 204.97479492 -539.81665039 204.37182617 C-538.48837252 201.95291759 -537.02874613 200.41327495 -535.03149414 198.52026367 C-532.45384025 196.10004408 -532.45384025 196.10004408 -530.59399414 193.14526367 C-529.29461914 192.58838867 -529.29461914 192.58838867 -527.96899414 192.02026367 C-524.79095947 190.25468885 -523.70426079 189.2511225 -521.53149414 186.52026367 C-518.0615845 182.3194418 -513.99150227 179.48376665 -509.49853516 176.50439453 C-505.26187521 173.6744832 -501.56622714 170.55466634 -497.82836914 167.11010742 C-493.67030235 163.45362561 -489.10444419 160.34724286 -484.59399414 157.14526367 C-482.86383479 155.87578215 -481.13467713 154.60493436 -479.40649414 153.33276367 C-472.23779718 148.12194696 -464.9235761 143.12588913 -457.59399414 138.14526367 C-456.93786133 137.69828125 -456.28172852 137.25129883 -455.60571289 136.79077148 C-448.34117841 131.85190711 -441.03409867 127.13249172 -433.39868164 122.77807617 C-430.69743012 121.20548127 -428.08512846 119.54239552 -425.46899414 117.83276367 C-411.16168586 108.63815345 -395.79471381 100.70110403 -380.57641602 93.13208008 C-378.73122475 92.21357477 -376.89091758 91.28527573 -375.05102539 90.35620117 C-367.27208237 86.43158383 -359.45115737 82.59838959 -351.59399414 78.83276367 C-350.28652222 78.20217041 -350.28652222 78.20217041 -348.95263672 77.55883789 C-345.08658222 75.71496455 -341.24098435 73.962687 -337.21899414 72.48510742 C-334.48071407 71.47300606 -332.1133621 70.44865533 -329.59399414 69.02026367 C-325.5877019 66.93762763 -322.07779284 66.46553501 -317.59399414 66.14526367 C-317.59399414 65.48526367 -317.59399414 64.82526367 -317.59399414 64.14526367 C-316.41836914 63.77401367 -315.24274414 63.40276367 -314.03149414 63.02026367 C-309.66445346 61.57376755 -305.4132744 59.88407643 -301.15649414 58.14526367 C-296.11388122 56.08792265 -291.08324506 54.32451147 -285.84008789 52.85229492 C-283.54759806 52.13065899 -281.456829 51.22659139 -279.28149414 50.20776367 C-270.73815942 46.26700012 -261.53889425 44.07964874 -252.42993164 41.85620117 C-245.16807674 40.03573617 -238.16604691 37.6657464 -231.15258789 35.05932617 C-228.93733035 34.26792119 -226.73644614 33.57911044 -224.46899414 32.95776367 C-221.71926822 32.43325537 -221.71926822 32.43325537 -220.59399414 31.14526367 C-219.0994498 30.78838574 -217.59249252 30.48326876 -216.08227539 30.19995117 C-215.11136963 30.01352051 -214.14046387 29.82708984 -213.14013672 29.63500977 C-212.07303467 29.43214355 -211.00593262 29.22927734 -209.90649414 29.02026367 C-198.61276294 26.8234122 -187.41708956 24.30686368 -176.22607422 21.64477539 C-164.00984326 18.74166126 -151.96454034 15.99874246 -139.46899414 14.64526367 C-132.26826653 13.81569188 -125.44097339 12.76502182 -118.46118164 10.76635742 C-113.4495019 9.68072108 -108.37184801 9.62028258 -103.25805664 9.45385742 C-99.67692065 9.30561501 -99.67692065 9.30561501 -96.77661133 8.16113281 C-93.41286162 7.08744744 -90.52827052 6.7725816 -87.00805664 6.58276367 C-85.74606445 6.50799805 -84.48407227 6.43323242 -83.18383789 6.35620117 C-81.22124023 6.25178711 -81.22124023 6.25178711 -79.21899414 6.14526367 C-70.67706176 5.67697499 -62.24618783 5.01903549 -53.76545715 3.88270569 C-45.67495386 2.83781578 -37.54973903 2.47925772 -29.40649414 2.08276367 C-27.06875394 1.96646902 -24.73114953 1.84840221 -22.39372253 1.72596741 C-20.95813227 1.65096733 -19.52235249 1.57947792 -18.08638 1.51219177 C-15.45468929 1.37624488 -12.92289572 1.21958944 -10.34820557 0.63775635 C-6.88936628 0.01926606 -3.50075259 -0.00227076 0 0 Z " fill="#FEFEFE" transform="translate(927.593994140625,1108.854736328125)"/>
<path d="M0 0 C3.04745818 0.31915249 6.0987239 0.45364923 9.15869141 0.60107422 C30.46551071 2.08640537 51.90517717 7.51474355 72.40869141 13.28857422 C73.24158691 13.5217334 74.07448242 13.75489258 74.93261719 13.99511719 C80.03988881 15.47442943 84.93290347 17.27182213 89.85058594 19.29125977 C92.85377442 20.5075924 95.90489606 21.55549346 98.97119141 22.60107422 C105.9197916 25.05574277 112.50831894 28.06671092 119.15869141 31.22607422 C121.51309185 32.27954469 123.87415085 33.31633018 126.23681641 34.35107422 C127.97087062 35.14056231 129.66229466 36.02209947 131.34619141 36.91357422 C134.12298113 38.37675538 134.12298113 38.37675538 137.28369141 38.66357422 C140.86432047 39.36413208 141.60682142 40.66970358 144.15869141 43.22607422 C146.22686694 44.63459638 148.33488373 45.98570268 150.47119141 47.28857422 C151.56044922 47.96017578 152.64970703 48.63177734 153.77197266 49.32373047 C157.18313951 51.23980689 160.54020766 52.75391543 164.15869141 54.22607422 C164.15869141 54.88607422 164.15869141 55.54607422 164.15869141 56.22607422 C166.13869141 56.88607422 168.11869141 57.54607422 170.15869141 58.22607422 C170.15869141 58.88607422 170.15869141 59.54607422 170.15869141 60.22607422 C170.87025391 60.48388672 171.58181641 60.74169922 172.31494141 61.00732422 C182.49639411 65.37080395 191.49997754 73.39943079 200.15869141 80.22607422 C201.50833984 81.28181641 201.50833984 81.28181641 202.88525391 82.35888672 C207.72087567 86.17648285 212.35562173 90.15328124 216.92822266 94.28076172 C219.19169265 96.25485639 221.52202983 98.09103265 223.90869141 99.91357422 C231.64503638 105.86255673 238.35640548 113.29001577 244.30712891 121.01513672 C245.91012657 123.40795635 245.91012657 123.40795635 248.22119141 123.60107422 C249.18025391 123.91044922 249.18025391 123.91044922 250.15869141 124.22607422 C251.17398682 126.55279287 252.17357338 128.88641892 253.15869141 131.22607422 C254.10808594 131.68626953 254.10808594 131.68626953 255.07666016 132.15576172 C257.84347465 133.57810163 258.5230864 135.18846596 259.97119141 137.91357422 C261.9324813 141.3705953 263.80535382 144.08825506 266.72119141 146.78857422 C270.05303598 149.8850567 272.00392159 153.15379134 274.01806641 157.21044922 C275.18534009 159.27316574 276.45206662 160.60136743 278.15869141 162.22607422 C281.15869141 166.78162977 281.15869141 166.78162977 281.15869141 169.22607422 C281.81869141 169.22607422 282.47869141 169.22607422 283.15869141 169.22607422 C283.66658203 170.12068359 284.17447266 171.01529297 284.69775391 171.93701172 C287.86366934 177.50188625 291.03157689 183.0603732 294.34619141 188.53857422 C299.00327254 196.25422485 303.15113166 204.1578174 307.15869141 212.22607422 C307.59479736 213.09780273 308.03090332 213.96953125 308.48022461 214.86767578 C314.66166619 227.27377785 320.04147788 239.61677719 324.34375 252.79199219 C325.16232351 255.23692266 326.0347427 257.65524821 326.92822266 260.07373047 C331.6472757 272.90457786 335.18630374 285.88504862 338.15869141 299.22607422 C338.35060059 300.08265625 338.54250977 300.93923828 338.74023438 301.82177734 C340.13819872 308.25367846 341.20967574 314.71376453 342.15869141 321.22607422 C342.34206055 322.47340332 342.52542969 323.72073242 342.71435547 325.00585938 C345.72593133 346.12281092 346.53580194 367.09315212 346.53369141 388.41357422 C346.53550415 389.61674286 346.53731689 390.8199115 346.53918457 392.05953979 C346.53859211 395.52544988 346.5206764 398.99073839 346.49462891 402.45654297 C346.49222198 403.48225403 346.48981506 404.50796509 346.48733521 405.5647583 C346.41156969 411.46185064 345.81963092 416.99827596 344.62901306 422.77697754 C343.88123286 426.67087865 343.64852507 430.59021125 343.34619141 434.53857422 C342.43718395 444.80351644 340.23421977 454.60489308 337.7890625 464.59814453 C337.00312254 467.87461924 336.29049708 471.16420286 335.58374023 474.45849609 C333.17893484 485.6431894 330.24748444 496.52916947 326.15869141 507.22607422 C325.66915421 508.5355012 325.18085968 509.84539346 324.69384766 511.15576172 C323.42317496 514.56438489 322.14343406 517.96950927 320.85791016 521.37255859 C320.27756882 522.91094944 319.70190122 524.45110245 319.12744141 525.99169922 C316.98728368 531.56348915 314.38159274 536.85372161 311.67041016 542.16455078 C309.50265073 546.44090589 307.70062219 550.69098369 306.15869141 555.22607422 C305.49869141 555.22607422 304.83869141 555.22607422 304.15869141 555.22607422 C304.09681641 556.05107422 304.03494141 556.87607422 303.97119141 557.72607422 C303.08961427 561.52363725 301.69609192 563.79153001 299.56884766 566.99169922 C297.10468144 570.89613987 295.15985325 575.07047004 293.15869141 579.22607422 C292.49869141 579.22607422 291.83869141 579.22607422 291.15869141 579.22607422 C290.49869141 581.20607422 289.83869141 583.18607422 289.15869141 585.22607422 C288.49869141 585.22607422 287.83869141 585.22607422 287.15869141 585.22607422 C286.89830078 585.93892578 286.63791016 586.65177734 286.36962891 587.38623047 C284.25046931 592.35600151 281.1065024 596.71532988 278.15869141 601.22607422 C277.73716797 601.90154297 277.31564453 602.57701172 276.88134766 603.27294922 C276.02756403 604.62611571 275.10184303 605.93360718 274.15869141 607.22607422 C273.49869141 607.22607422 272.83869141 607.22607422 272.15869141 607.22607422 C271.79904297 608.27988281 271.79904297 608.27988281 271.43212891 609.35498047 C266.77831739 619.84746961 256.9580628 629.1340934 249.44970703 637.73974609 C248.3892327 638.96065528 247.34233959 640.19334822 246.29931641 641.42919922 C242.5599918 645.83493811 238.54335614 649.94278316 234.47119141 654.03857422 C233.91181885 654.60261963 233.35244629 655.16666504 232.77612305 655.74780273 C225.26860001 663.22607422 225.26860001 663.22607422 222.15869141 663.22607422 C221.91119141 663.80357422 221.66369141 664.38107422 221.40869141 664.97607422 C219.97569152 667.55547401 218.37444464 669.28729014 216.15869141 671.22607422 C215.49869141 671.22607422 214.83869141 671.22607422 214.15869141 671.22607422 C214.15869141 671.88607422 214.15869141 672.54607422 214.15869141 673.22607422 C213.49869141 673.22607422 212.83869141 673.22607422 212.15869141 673.22607422 C212.15869141 673.88607422 212.15869141 674.54607422 212.15869141 675.22607422 C211.19962891 675.38076172 211.19962891 675.38076172 210.22119141 675.53857422 C209.54056641 675.76544922 208.85994141 675.99232422 208.15869141 676.22607422 C207.82869141 677.21607422 207.49869141 678.20607422 207.15869141 679.22607422 C206.49869141 679.22607422 205.83869141 679.22607422 205.15869141 679.22607422 C205.13806641 679.82419922 205.11744141 680.42232422 205.09619141 681.03857422 C204.15869141 683.22607422 204.15869141 683.22607422 200.97119141 684.66357422 C200.03146484 685.01162109 200.03146484 685.01162109 199.07275391 685.36669922 C196.99374109 686.30013354 195.55511223 687.41511162 193.84619141 688.91357422 C191.15869141 691.22607422 191.15869141 691.22607422 189.15869141 691.22607422 C189.15869141 691.88607422 189.15869141 692.54607422 189.15869141 693.22607422 C186.85791016 694.91748047 186.85791016 694.91748047 183.84619141 696.78857422 C182.86005859 697.40861328 181.87392578 698.02865234 180.85791016 698.66748047 C178.15869141 700.22607422 178.15869141 700.22607422 175.15869141 701.22607422 C175.15869141 701.88607422 175.15869141 702.54607422 175.15869141 703.22607422 C173.72203125 704.02658203 173.72203125 704.02658203 172.25634766 704.84326172 C170.91102896 705.5953892 169.56600097 706.34803679 168.22119141 707.10107422 C167.50189453 707.50382568 166.78259766 707.90657715 166.04150391 708.3215332 C161.5786799 710.8318717 157.15869823 713.40228321 152.7644043 716.03051758 C138.3429312 724.64661623 123.30475844 732.13122741 107.64306641 738.23388672 C105.77106476 738.98151002 103.91840564 739.77783633 102.07666016 740.59716797 C97.06577251 742.75296798 91.89376907 744.44209607 86.72119141 746.16357422 C85.65513672 746.51838867 84.58908203 746.87320313 83.49072266 747.23876953 C75.11227442 749.98858029 66.74498122 752.23266508 58.15869141 754.22607422 C55.76251877 754.8497721 53.36670001 755.47483074 50.97119141 756.10107422 C16.67069929 764.74229532 16.67069929 764.74229532 -0.26318359 765.12060547 C-2.77272479 764.93161944 -2.77272479 764.93161944 -3.84130859 766.22607422 C-5.85594842 766.3361019 -7.8744834 766.37520842 -9.89208984 766.38720703 C-11.84308594 766.40161835 -11.84308594 766.40161835 -13.83349609 766.4163208 C-15.27359846 766.42117945 -16.71370289 766.42545563 -18.15380859 766.42919922 C-18.88293457 766.4320266 -19.61206055 766.43485397 -20.36328125 766.43776703 C-24.25000371 766.4528209 -28.13668874 766.4620008 -32.0234375 766.46630859 C-35.19250385 766.47063343 -38.36128871 766.48427706 -41.53027344 766.50732422 C-62.8253056 766.65917779 -84.04083992 766.61554381 -104.89257812 761.65582275 C-106.75203373 761.24576178 -108.64194141 760.98192062 -110.52880859 760.72607422 C-113.84130859 760.22607422 -113.84130859 760.22607422 -116.58740234 759.26513672 C-120.13590373 758.13200182 -123.52582408 757.5884967 -127.21630859 757.10107422 C-128.46154297 756.93349609 -129.70677734 756.76591797 -130.98974609 756.59326172 C-131.93076172 756.47208984 -132.87177734 756.35091797 -133.84130859 756.22607422 C-133.84130859 755.56607422 -133.84130859 754.90607422 -133.84130859 754.22607422 C-134.67533203 754.11650391 -135.50935547 754.00693359 -136.36865234 753.89404297 C-146.13225725 752.51841479 -154.36002029 749.84379663 -163.43115234 746.12841797 C-165.61062415 745.31244068 -167.69805537 744.72766446 -169.96630859 744.22607422 C-173.49005079 743.41884244 -176.38085716 742.05595241 -179.56396484 740.36669922 C-183.28131619 738.50483542 -187.1507282 737.01457621 -191.00927734 735.47216797 C-193.84130859 734.22607422 -193.84130859 734.22607422 -196.38818359 732.68701172 C-198.86621994 731.21123848 -201.17078562 730.31633746 -203.90380859 729.41357422 C-213.0724745 726.17612076 -221.84265721 721.7636021 -229.84130859 716.22607422 C-229.84130859 715.56607422 -229.84130859 714.90607422 -229.84130859 714.22607422 C-230.62505859 714.01982422 -231.40880859 713.81357422 -232.21630859 713.60107422 C-240.182228 710.57951858 -247.09084595 705.44420187 -254.09130859 700.66357422 C-255.10136963 699.97533569 -255.10136963 699.97533569 -256.13183594 699.27319336 C-259.25045302 697.12022965 -262.24572151 694.93012173 -265.11865234 692.45654297 C-267.98736187 690.10642368 -270.36187335 689.3589136 -273.84130859 688.22607422 C-274.17130859 687.23607422 -274.50130859 686.24607422 -274.84130859 685.22607422 C-275.83130859 684.56607422 -276.82130859 683.90607422 -277.84130859 683.22607422 C-277.84130859 682.56607422 -277.84130859 681.90607422 -277.84130859 681.22607422 C-278.67919922 681.04044922 -279.51708984 680.85482422 -280.38037109 680.66357422 C-285.01773255 678.73744666 -287.77386962 675.80506087 -291.21630859 672.22607422 C-291.85697266 671.58412109 -292.49763672 670.94216797 -293.15771484 670.28076172 C-297.84130859 665.5072909 -297.84130859 665.5072909 -297.84130859 663.22607422 C-298.39818359 663.16419922 -298.95505859 663.10232422 -299.52880859 663.03857422 C-302.13376968 662.12331762 -303.42885265 660.80824738 -305.28662109 658.81201172 C-307.22076707 656.83898844 -309.30481666 655.08476076 -311.40380859 653.28857422 C-314.06209698 650.96421958 -316.27467316 648.88374316 -318.09130859 645.85107422 C-319.5997689 643.02834255 -319.5997689 643.02834255 -322.40380859 642.28857422 C-326.08902932 640.68219596 -326.36697564 637.85047605 -327.84130859 634.22607422 C-329.46105418 632.51377174 -331.13720319 630.8544416 -332.84130859 629.22607422 C-335.58906736 625.9560142 -338.21780408 622.59622914 -340.84130859 619.22607422 C-341.45103516 618.44876953 -342.06076172 617.67146484 -342.68896484 616.87060547 C-346.84130859 611.48139337 -346.84130859 611.48139337 -346.84130859 609.22607422 C-347.50130859 609.22607422 -348.16130859 609.22607422 -348.84130859 609.22607422 C-349.98325689 607.42664055 -351.11532137 605.62037706 -352.20458984 603.78857422 C-354.85019514 599.6465287 -357.92459619 595.8282298 -360.95068359 591.96044922 C-362.61320204 589.55598039 -363.43479968 588.0716366 -363.84130859 585.22607422 C-364.50130859 585.22607422 -365.16130859 585.22607422 -365.84130859 585.22607422 C-367.17950358 582.60345102 -368.51202369 579.97820823 -369.84130859 577.35107422 C-370.41365234 576.23152344 -370.41365234 576.23152344 -370.99755859 575.08935547 C-371.35849609 574.37392578 -371.71943359 573.65849609 -372.09130859 572.92138672 C-372.42646484 572.26154785 -372.76162109 571.60170898 -373.10693359 570.921875 C-373.84130859 569.22607422 -373.84130859 569.22607422 -373.84130859 567.22607422 C-374.50130859 567.22607422 -375.16130859 567.22607422 -375.84130859 567.22607422 C-380.84708838 557.58278727 -385.39693514 547.82434213 -389.61547852 537.81079102 C-391.67178537 532.93325795 -393.80198849 528.12342613 -396.09130859 523.35107422 C-403.89851049 506.57845917 -408.33304485 487.84984199 -412.65380859 469.91357422 C-412.86070312 469.06069824 -413.06759766 468.20782227 -413.28076172 467.32910156 C-414.19264691 463.45205434 -414.96080261 459.64193725 -415.41552734 455.68310547 C-415.45962736 452.40263311 -415.45962736 452.40263311 -416.84130859 451.22607422 C-417.1622861 448.90790333 -417.35351815 446.58828065 -417.56005859 444.25732422 C-417.63196697 442.23426829 -417.63196697 442.23426829 -418.84130859 441.22607422 C-419.05723054 439.4840789 -419.21250809 437.73448102 -419.34130859 435.98388672 C-419.42380859 434.91783203 -419.50630859 433.85177734 -419.59130859 432.75341797 C-419.67380859 431.63064453 -419.75630859 430.50787109 -419.84130859 429.35107422 C-420.00452613 427.14508715 -420.17104432 424.9393411 -420.34130859 422.73388672 C-420.41349609 421.75049316 -420.48568359 420.76709961 -420.56005859 419.75390625 C-420.76553832 417.10441174 -420.76553832 417.10441174 -421.84130859 414.22607422 C-421.93511921 412.26364896 -421.9692395 410.29816176 -421.97070312 408.33349609 C-421.97385529 407.12213989 -421.97700745 405.91078369 -421.98025513 404.66271973 C-421.9782309 403.35331421 -421.97620667 402.04390869 -421.97412109 400.69482422 C-421.97479476 399.33866356 -421.97576532 397.98250302 -421.97702026 396.62634277 C-421.97849426 393.78506317 -421.97635223 390.94381501 -421.97167969 388.10253906 C-421.96598257 384.4607569 -421.96926316 380.81904844 -421.97525215 377.17726898 C-421.97886579 374.37717127 -421.97771548 371.57709103 -421.97512436 368.7769928 C-421.97413292 366.78113762 -421.97716971 364.78528175 -421.98025513 362.78942871 C-421.97710297 361.57807251 -421.97395081 360.36671631 -421.97070312 359.11865234 C-421.96990753 358.05070435 -421.96911194 356.98275635 -421.96829224 355.88244629 C-421.84130859 353.22607422 -421.84130859 353.22607422 -420.84130859 350.22607422 C-420.64721957 348.28036303 -420.49859554 346.32996779 -420.37646484 344.37841797 C-420.25948242 342.63334961 -420.25948242 342.63334961 -420.14013672 340.85302734 C-419.98434489 338.42087219 -419.83064988 335.98858168 -419.67919922 333.55615234 C-419.20979792 326.61435583 -418.35153845 320.01145246 -416.84130859 313.22607422 C-416.57347981 311.80557674 -416.31274815 310.38371776 -416.06005859 308.96044922 C-415.94017578 308.29787109 -415.82029297 307.63529297 -415.69677734 306.95263672 C-415.45707569 305.61979013 -415.22015672 304.28644049 -414.98583984 302.95263672 C-414.2462093 298.89659823 -413.16264575 295.12456484 -411.84130859 291.22607422 C-411.40829983 288.94701669 -411.40829983 288.94701669 -411.21630859 286.85107422 C-411.09255859 285.65482422 -410.96880859 284.45857422 -410.84130859 283.22607422 C-410.18130859 283.22607422 -409.52130859 283.22607422 -408.84130859 283.22607422 C-408.72013672 282.59701172 -408.59896484 281.96794922 -408.47412109 281.31982422 C-405.9283577 268.3168481 -402.50272589 255.56040757 -396.86865234 243.52294922 C-395.59418033 240.67355932 -394.5042802 237.77195213 -393.40380859 234.85107422 C-391.4688365 229.76215679 -389.36598562 224.80130095 -387.06787109 219.86669922 C-386.29303982 218.19859112 -385.53541318 216.52228477 -384.80224609 214.83544922 C-381.87663872 208.14233308 -378.56502212 201.65232124 -375.21630859 195.16357422 C-374.49677002 193.75132568 -374.49677002 193.75132568 -373.76269531 192.31054688 C-373.30137207 191.42544434 -372.84004883 190.5403418 -372.36474609 189.62841797 C-371.95144043 188.82911865 -371.53813477 188.02981934 -371.11230469 187.20629883 C-369.84130859 185.22607422 -369.84130859 185.22607422 -366.84130859 183.22607422 C-365.97725271 181.42883798 -365.11544442 179.63049616 -364.26318359 177.82763672 C-361.37269508 172.53899565 -357.61187338 167.76412085 -354.05908203 162.90527344 C-352.38720951 160.59991273 -350.77036394 158.25794521 -349.15380859 155.91357422 C-343.75406095 148.18526407 -337.81379889 140.9282012 -331.75927734 133.70654297 C-330.11267031 131.57702063 -329.02325389 129.61694986 -327.84130859 127.22607422 C-327.22255859 126.93732422 -326.60380859 126.64857422 -325.96630859 126.35107422 C-323.5767022 125.30383555 -323.5767022 125.30383555 -322.02880859 122.47607422 C-319.76769115 119.11669973 -317.4898479 117.07708015 -314.32958984 114.62060547 C-312.56420718 113.18818496 -312.56420718 113.18818496 -311.84130859 110.22607422 C-310.09912109 108.50732422 -310.09912109 108.50732422 -307.96630859 106.72607422 C-304.98746328 104.22342101 -304.98746328 104.22342101 -302.20849609 101.50732422 C-300.84130859 100.22607422 -300.84130859 100.22607422 -298.84130859 100.22607422 C-298.61443359 99.60732422 -298.38755859 98.98857422 -298.15380859 98.35107422 C-296.45267901 95.59686442 -294.78754706 95.4045696 -291.84130859 94.22607422 C-291.53193359 93.60732422 -291.22255859 92.98857422 -290.90380859 92.35107422 C-288.91291771 88.36929245 -284.92405193 86.58698866 -280.84130859 85.22607422 C-280.54224609 84.61248047 -280.24318359 83.99888672 -279.93505859 83.36669922 C-278.5346403 80.62588055 -276.9138083 79.62982403 -274.34130859 77.97607422 C-273.54724609 77.45529297 -272.75318359 76.93451172 -271.93505859 76.39794922 C-269.84130859 75.22607422 -269.84130859 75.22607422 -267.84130859 75.22607422 C-267.84130859 74.56607422 -267.84130859 73.90607422 -267.84130859 73.22607422 C-267.18130859 73.22607422 -266.52130859 73.22607422 -265.84130859 73.22607422 C-265.84130859 72.56607422 -265.84130859 71.90607422 -265.84130859 71.22607422 C-264.36474609 70.03466797 -264.36474609 70.03466797 -262.21630859 68.66357422 C-261.39388672 68.13376953 -260.57146484 67.60396484 -259.72412109 67.05810547 C-258.29712891 66.15125 -258.29712891 66.15125 -256.84130859 65.22607422 C-255.76623047 64.52869141 -254.69115234 63.83130859 -253.58349609 63.11279297 C-245.74397606 58.02781892 -237.83293587 53.0691534 -229.84130859 48.22607422 C-228.72175781 47.53964844 -228.72175781 47.53964844 -227.57958984 46.83935547 C-224.76190767 45.15583467 -223.18769309 44.22607422 -219.84130859 44.22607422 C-219.84130859 43.56607422 -219.84130859 42.90607422 -219.84130859 42.22607422 C-202.60726604 32.22607422 -202.60726604 32.22607422 -195.84130859 32.22607422 C-195.84130859 31.56607422 -195.84130859 30.90607422 -195.84130859 30.22607422 C-195.19806641 30.00693359 -194.55482422 29.78779297 -193.89208984 29.56201172 C-188.73388133 27.75185581 -183.8097326 25.76590728 -178.90380859 23.35107422 C-164.8131158 16.73877512 -149.25432568 13.44600107 -134.18701172 9.80078125 C-131.93694848 9.24950639 -129.69324267 8.67813919 -127.45068359 8.09716797 C-120.61739601 6.33144198 -113.82828088 4.77207205 -106.84130859 3.72216797 C-104.78800804 3.38262478 -102.74509118 2.97531448 -100.71630859 2.51123047 C-68.83862071 -4.76992324 -32.34345232 -3.69926145 0 0 Z " fill="#FEFEFE" transform="translate(997.84130859375,246.77392578125)"/>
<path d="M0 0 C0.66 0.33 1.32 0.66 2 1 C-1.3 4.3 -4.6 7.6 -8 11 C-8.33 10.01 -8.66 9.02 -9 8 C-8.34 8 -7.68 8 -7 8 C-6.67 7.01 -6.34 6.02 -6 5 C-4.12382302 3.15500602 -2.07262391 1.6316401 0 0 Z " fill="#F4F8F8" transform="translate(361,1339)"/>
</svg>
